<?xml version="1.0" encoding="UTF-8"?>
<svg width="20px" height="20px" viewBox="0 0 20 20" version="1.1" xmlns="http://www.w3.org/2000/svg" xmlns:xlink="http://www.w3.org/1999/xlink">
    <!-- Generator: Sketch 51.3 (57544) - http://www.bohemiancoding.com/sketch -->
    <title>facebok</title>
    <desc>Created with Sketch.</desc>
    <defs></defs>
    <g id="Page-1" stroke="none" stroke-width="1" fill="none" fill-rule="evenodd">
        <g id="Mobile-Copy-2" transform="translate(-135.000000, -868.000000)" fill="#E52230" fill-rule="nonzero">
            <g id="facebok" transform="translate(135.000000, 868.000000)">
                <path d="M10,0 C15.5228516,0 20,4.49459131 20,10.0389598 C20,15.1583195 16.1828516,19.3824471 11.25,20 L11.25,12.5486997 L14.6875,12.5486997 L15,10.0389598 L11.25,10.0389598 L11.25,8.78408982 C11.25,8.09104866 11.8096094,7.52921984 12.5,7.52921984 L15,7.52921984 L15,5.0194799 L12.5,5.0194799 C10.4289062,5.0194799 8.75,6.70492713 8.75,8.78408982 L8.75,10.0389598 L6.875,10.0389598 L6.875,12.5486997 L8.75,12.5486997 L8.75,17.5093576 L8.75,19.7616531 L8.75,20 C3.81714844,19.3824079 0,15.1583195 0,10.0389598 C0,4.49459131 4.47714844,0 10,0 Z" id="Shape"></path>
            </g>
        </g>
    </g>
</svg>