<?xml version="1.0" encoding="UTF-8"?>
<svg width="20px" height="20px" viewBox="0 0 20 20" version="1.1" xmlns="http://www.w3.org/2000/svg" xmlns:xlink="http://www.w3.org/1999/xlink">
    <!-- Generator: Sketch 51.3 (57544) - http://www.bohemiancoding.com/sketch -->
    <title>instagram</title>
    <desc>Created with Sketch.</desc>
    <defs></defs>
    <g id="Page-1" stroke="none" stroke-width="1" fill="none" fill-rule="evenodd">
        <g id="Mobile-Copy-2" transform="translate(-165.000000, -868.000000)" fill="#E52230" fill-rule="nonzero">
            <g id="instagram" transform="translate(165.000000, 868.000000)">
                <path d="M10,20 C15.5228475,20 20,15.5228475 20,10 C20,4.4771525 15.5228475,0 10,0 C4.4771525,0 0,4.4771525 0,10 C0,15.5228475 4.4771525,20 10,20 Z M9.99978057,8.01132249 C8.90351743,8.01132249 8.01088364,8.90351743 8.01088364,9.99978057 C8.01088364,11.0964826 8.90351743,11.9891164 9.99978057,11.9891164 C11.0964826,11.9891164 11.9886775,11.0964826 11.9886775,9.99978057 C11.9886775,8.90351743 11.0964826,8.01132249 9.99978057,8.01132249 Z M9.99978057,8.01132249 C8.90351743,8.01132249 8.01088364,8.90351743 8.01088364,9.99978057 C8.01088364,11.0964826 8.90351743,11.9891164 9.99978057,11.9891164 C11.0964826,11.9891164 11.9886775,11.0964826 11.9886775,9.99978057 C11.9886775,8.90351743 11.0964826,8.01132249 9.99978057,8.01132249 Z M13.3131459,4.76861299 L6.68685406,4.76861299 C5.62921028,4.76861299 4.76861299,5.62921028 4.76861299,6.68685406 L4.76861299,13.3131459 C4.76861299,14.3707897 5.62921028,15.231387 6.68685406,15.231387 L13.3131459,15.231387 C14.3707897,15.231387 15.231387,14.3707897 15.231387,13.3131459 L15.231387,6.68685406 C15.231387,5.62921028 14.3707897,4.76861299 13.3131459,4.76861299 Z M9.99978057,13.444364 C8.10084919,13.444364 6.55563601,11.8991508 6.55563601,9.99978057 C6.55563601,8.10084919 8.10084919,6.55563601 9.99978057,6.55563601 C11.8991508,6.55563601 13.444364,8.10084919 13.444364,9.99978057 C13.444364,11.8991508 11.8991508,13.444364 9.99978057,13.444364 Z M13.5549558,7.26789985 C13.1055669,7.26789985 12.7399996,6.90233252 12.7399996,6.45294363 C12.7399996,6.00355474 13.1055669,5.6379874 13.5549558,5.6379874 C14.0043447,5.6379874 14.369912,6.00355474 14.369912,6.45294363 C14.369912,6.90233252 14.0043447,7.26789985 13.5549558,7.26789985 Z M9.99978057,8.01132249 C8.90351743,8.01132249 8.01088364,8.90351743 8.01088364,9.99978057 C8.01088364,11.0964826 8.90351743,11.9891164 9.99978057,11.9891164 C11.0964826,11.9891164 11.9886775,11.0964826 11.9886775,9.99978057 C11.9886775,8.90351743 11.0964826,8.01132249 9.99978057,8.01132249 Z M13.3131459,4.76861299 L6.68685406,4.76861299 C5.62921028,4.76861299 4.76861299,5.62921028 4.76861299,6.68685406 L4.76861299,13.3131459 C4.76861299,14.3707897 5.62921028,15.231387 6.68685406,15.231387 L13.3131459,15.231387 C14.3707897,15.231387 15.231387,14.3707897 15.231387,13.3131459 L15.231387,6.68685406 C15.231387,5.62921028 14.3707897,4.76861299 13.3131459,4.76861299 Z M9.99978057,13.444364 C8.10084919,13.444364 6.55563601,11.8991508 6.55563601,9.99978057 C6.55563601,8.10084919 8.10084919,6.55563601 9.99978057,6.55563601 C11.8991508,6.55563601 13.444364,8.10084919 13.444364,9.99978057 C13.444364,11.8991508 11.8991508,13.444364 9.99978057,13.444364 Z M13.5549558,7.26789985 C13.1055669,7.26789985 12.7399996,6.90233252 12.7399996,6.45294363 C12.7399996,6.00355474 13.1055669,5.6379874 13.5549558,5.6379874 C14.0043447,5.6379874 14.369912,6.00355474 14.369912,6.45294363 C14.369912,6.90233252 14.0043447,7.26789985 13.5549558,7.26789985 Z M9.99978057,8.01132249 C8.90351743,8.01132249 8.01088364,8.90351743 8.01088364,9.99978057 C8.01088364,11.0964826 8.90351743,11.9891164 9.99978057,11.9891164 C11.0964826,11.9891164 11.9886775,11.0964826 11.9886775,9.99978057 C11.9886775,8.90351743 11.0964826,8.01132249 9.99978057,8.01132249 Z M16.6866346,13.3131459 C16.6866346,15.173458 15.173458,16.6866346 13.3131459,16.6866346 L6.68685406,16.6866346 C4.82654203,16.6866346 3.31336537,15.173458 3.31336537,13.3131459 L3.31336537,6.68685406 C3.31336537,4.82654203 4.82654203,3.31336537 6.68685406,3.31336537 L13.3131459,3.31336537 C15.173458,3.31336537 16.6866346,4.82654203 16.6866346,6.68685406 L16.6866346,13.3131459 Z M13.3131459,4.76861299 L6.68685406,4.76861299 C5.62921028,4.76861299 4.76861299,5.62921028 4.76861299,6.68685406 L4.76861299,13.3131459 C4.76861299,14.3707897 5.62921028,15.231387 6.68685406,15.231387 L13.3131459,15.231387 C14.3707897,15.231387 15.231387,14.3707897 15.231387,13.3131459 L15.231387,6.68685406 C15.231387,5.62921028 14.3707897,4.76861299 13.3131459,4.76861299 Z M9.99978057,13.444364 C8.10084919,13.444364 6.55563601,11.8991508 6.55563601,9.99978057 C6.55563601,8.10084919 8.10084919,6.55563601 9.99978057,6.55563601 C11.8991508,6.55563601 13.444364,8.10084919 13.444364,9.99978057 C13.444364,11.8991508 11.8991508,13.444364 9.99978057,13.444364 Z M13.5549558,7.26789985 C13.1055669,7.26789985 12.7399996,6.90233252 12.7399996,6.45294363 C12.7399996,6.00355474 13.1055669,5.6379874 13.5549558,5.6379874 C14.0043447,5.6379874 14.369912,6.00355474 14.369912,6.45294363 C14.369912,6.90233252 14.0043447,7.26789985 13.5549558,7.26789985 Z M9.99978057,8.01132249 C8.90351743,8.01132249 8.01088364,8.90351743 8.01088364,9.99978057 C8.01088364,11.0964826 8.90351743,11.9891164 9.99978057,11.9891164 C11.0964826,11.9891164 11.9886775,11.0964826 11.9886775,9.99978057 C11.9886775,8.90351743 11.0964826,8.01132249 9.99978057,8.01132249 Z M9.99978057,8.01132249 C8.90351743,8.01132249 8.01088364,8.90351743 8.01088364,9.99978057 C8.01088364,11.0964826 8.90351743,11.9891164 9.99978057,11.9891164 C11.0964826,11.9891164 11.9886775,11.0964826 11.9886775,9.99978057 C11.9886775,8.90351743 11.0964826,8.01132249 9.99978057,8.01132249 Z M9.99978057,8.01132249 C8.90351743,8.01132249 8.01088364,8.90351743 8.01088364,9.99978057 C8.01088364,11.0964826 8.90351743,11.9891164 9.99978057,11.9891164 C11.0964826,11.9891164 11.9886775,11.0964826 11.9886775,9.99978057 C11.9886775,8.90351743 11.0964826,8.01132249 9.99978057,8.01132249 Z M13.3131459,4.76861299 L6.68685406,4.76861299 C5.62921028,4.76861299 4.76861299,5.62921028 4.76861299,6.68685406 L4.76861299,13.3131459 C4.76861299,14.3707897 5.62921028,15.231387 6.68685406,15.231387 L13.3131459,15.231387 C14.3707897,15.231387 15.231387,14.3707897 15.231387,13.3131459 L15.231387,6.68685406 C15.231387,5.62921028 14.3707897,4.76861299 13.3131459,4.76861299 Z M9.99978057,13.444364 C8.10084919,13.444364 6.55563601,11.8991508 6.55563601,9.99978057 C6.55563601,8.10084919 8.10084919,6.55563601 9.99978057,6.55563601 C11.8991508,6.55563601 13.444364,8.10084919 13.444364,9.99978057 C13.444364,11.8991508 11.8991508,13.444364 9.99978057,13.444364 Z M13.5549558,7.26789985 C13.1055669,7.26789985 12.7399996,6.90233252 12.7399996,6.45294363 C12.7399996,6.00355474 13.1055669,5.6379874 13.5549558,5.6379874 C14.0043447,5.6379874 14.369912,6.00355474 14.369912,6.45294363 C14.369912,6.90233252 14.0043447,7.26789985 13.5549558,7.26789985 Z M9.99978057,8.01132249 C8.90351743,8.01132249 8.01088364,8.90351743 8.01088364,9.99978057 C8.01088364,11.0964826 8.90351743,11.9891164 9.99978057,11.9891164 C11.0964826,11.9891164 11.9886775,11.0964826 11.9886775,9.99978057 C11.9886775,8.90351743 11.0964826,8.01132249 9.99978057,8.01132249 Z M9.99978057,8.01132249 C8.90351743,8.01132249 8.01088364,8.90351743 8.01088364,9.99978057 C8.01088364,11.0964826 8.90351743,11.9891164 9.99978057,11.9891164 C11.0964826,11.9891164 11.9886775,11.0964826 11.9886775,9.99978057 C11.9886775,8.90351743 11.0964826,8.01132249 9.99978057,8.01132249 Z M9.99978057,8.01132249 C8.90351743,8.01132249 8.01088364,8.90351743 8.01088364,9.99978057 C8.01088364,11.0964826 8.90351743,11.9891164 9.99978057,11.9891164 C11.0964826,11.9891164 11.9886775,11.0964826 11.9886775,9.99978057 C11.9886775,8.90351743 11.0964826,8.01132249 9.99978057,8.01132249 Z M13.3131459,4.76861299 L6.68685406,4.76861299 C5.62921028,4.76861299 4.76861299,5.62921028 4.76861299,6.68685406 L4.76861299,13.3131459 C4.76861299,14.3707897 5.62921028,15.231387 6.68685406,15.231387 L13.3131459,15.231387 C14.3707897,15.231387 15.231387,14.3707897 15.231387,13.3131459 L15.231387,6.68685406 C15.231387,5.62921028 14.3707897,4.76861299 13.3131459,4.76861299 Z M9.99978057,13.444364 C8.10084919,13.444364 6.55563601,11.8991508 6.55563601,9.99978057 C6.55563601,8.10084919 8.10084919,6.55563601 9.99978057,6.55563601 C11.8991508,6.55563601 13.444364,8.10084919 13.444364,9.99978057 C13.444364,11.8991508 11.8991508,13.444364 9.99978057,13.444364 Z M13.5549558,7.26789985 C13.1055669,7.26789985 12.7399996,6.90233252 12.7399996,6.45294363 C12.7399996,6.00355474 13.1055669,5.6379874 13.5549558,5.6379874 C14.0043447,5.6379874 14.369912,6.00355474 14.369912,6.45294363 C14.369912,6.90233252 14.0043447,7.26789985 13.5549558,7.26789985 Z M9.99978057,8.01132249 C8.90351743,8.01132249 8.01088364,8.90351743 8.01088364,9.99978057 C8.01088364,11.0964826 8.90351743,11.9891164 9.99978057,11.9891164 C11.0964826,11.9891164 11.9886775,11.0964826 11.9886775,9.99978057 C11.9886775,8.90351743 11.0964826,8.01132249 9.99978057,8.01132249 Z" id="Shape"></path>
            </g>
        </g>
    </g>
</svg>