<?xml version="1.0" encoding="utf-8"?>
<!-- Generator: Adobe Illustrator 22.1.0, SVG Export Plug-In . SVG Version: 6.00 Build 0)  -->
<svg version="1.1" id="Layer_1" xmlns="http://www.w3.org/2000/svg" xmlns:xlink="http://www.w3.org/1999/xlink" x="0px" y="0px"
	 viewBox="0 0 56 56" style="enable-background:new 0 0 56 56;" xml:space="preserve">
<title>LogoApp</title>
<desc>Created with Sketch.</desc>
<g>
	<path d="M10.6,21.8c0.5-0.1,1.3-0.4,1.5-0.7c0.6-0.8,0.3-3.7,0.2-4.4c0-0.4-0.3-0.8-0.6-1.1c-0.4-0.5-1-0.6-1.4-0.6
		c-0.7,0-1.9,0.1-2.5,0.8c-0.6,0.8-0.6,2-0.4,3C7.9,22.1,9.3,22.1,10.6,21.8z"/>
	<path d="M20.1,21.6c0.9,0.3,2.1,0.4,3.1,0.3c0.7-0.1,1-0.8,1.1-1.4c0.1-1.2,0.2-2.4,0.1-3.5c-0.3-2.2-2.9-2.2-4.4-1.5
		c-0.3,0.1-0.5,1.1-0.5,1.4c-0.1,0.7-0.1,1.7-0.2,2.7C19.2,20.1,19.3,21.3,20.1,21.6z"/>
	<path d="M33.5,21.9c2.2,0,2.4-2.2,2.5-4c0-0.7-0.1-1.6-0.7-2c-0.7-0.5-1.7-0.8-2.6-0.9c-0.8-0.1-1.2,1.1-1.4,1.6
		c-0.2,0.6-0.3,1.1-0.4,1.7c-0.1,0.8-0.2,1.9,0.2,2.6C31.4,21.6,32.8,21.9,33.5,21.9z"/>
	<path d="M46.1,21.6c1.8-0.8,1-4,0.5-5.4c-0.5-1-0.7-1.4-1.8-1.2c-1.5,0.2-2.1,1.1-2.4,1.5c-0.6,1.1-0.2,3.1,0,4
		C42.6,22.1,44.8,22.2,46.1,21.6z"/>
	<polygon points="7,39.1 9.2,39.1 9.2,33.8 12.4,33.8 12.8,31.8 9.2,31.8 9.2,27.6 13.8,27.6 14.2,25.6 7,25.6 	"/>
	<path d="M36.8,30.8v-2.2c0-2-1.2-3-3.4-3H30v13.6h2.2v-5.4h1.2l1.8,5.4h2.3l-2-5.7C36.4,32.9,36.8,32,36.8,30.8z M32.1,27.6h1.2
		c0.9,0,1.3,0.4,1.3,1.3v1.5c0,1-0.4,1.3-1.3,1.3h-1.2V27.6z"/>
	<polygon points="46.5,32.8 48.6,25.6 46.3,25.6 44.6,31.8 43.6,31.8 43.6,25.6 41.4,25.6 41.4,39.1 43.6,39.1 43.6,33.8 44.6,33.8 
		46.4,39.1 48.7,39.1 	"/>
	<path d="M21.9,25.4L21.9,25.4h-0.1c-2.2,0-3.4,1-3.4,3v7.9c0,2,1.2,3,3.4,3h0.1H22c2.2,0,3.4-1,3.4-3v-7.9
		C25.3,26.4,24.1,25.4,21.9,25.4z M23.1,35.9c0,1-0.4,1.4-1.3,1.4l0,0l0,0c-0.9,0-1.3-0.4-1.3-1.4v-7.1c0-1,0.4-1.4,1.3-1.4l0,0l0,0
		c0.9,0,1.3,0.4,1.3,1.4V35.9z"/>
</g>
</svg>
